# xmcd
#
# Track frame offsets: 
#        150
#        14175
#        27014
#        43494
#        56086
#        69428
#        82228
#        94439
#        110931
#        123677
#        141972
#        150892
#
# Disc length: 2229 seconds
#
# Revision: 0
# Processed by: cddbd v1.5.2PL0 Copyright (c) Steve Scherf et al.
# Submitted via: ExactAudioCopy v0.99pb4
#
DISCID=b608b30c
DTITLE=New Outlook - Prepare to Believe
DYEAR=2010
DGENRE=Bluegrass
TTITLE0=Somebody's Knockin'
TTITLE1=Slow Train
TTITLE2=Good Hearted Woman
TTITLE3=Wish You Were Someone I Loved
TTITLE4=Love's Not Everything
TTITLE5=Bullet Through the Heart
TTITLE6=Don't Be a Fool Again
TTITLE7=World of Unwanted
TTITLE8=Baby, Look Out
TTITLE9=Prepare to Believe
TTITLE10=Dupont
TTITLE11=Too Old to Die Young
EXTD=
EXTT0=
EXTT1=
EXTT2=
EXTT3=
EXTT4=
EXTT5=
EXTT6=
EXTT7=
EXTT8=
EXTT9=
EXTT10=
EXTT11=
PLAYORDER=
